<svg width="25" height="21" viewBox="0 0 25 21" fill="none" xmlns="http://www.w3.org/2000/svg">
<path d="M4.6875 19.6875H20.3125V16.4062C20.3108 15.1883 19.7341 14.0207 18.7089 13.1595C17.6837 12.2983 16.2936 11.8139 14.8438 11.8125H10.1562C8.70636 11.8139 7.31632 12.2983 6.29109 13.1595C5.26586 14.0207 4.68915 15.1883 4.6875 16.4062V19.6875Z" fill="#2E3192"/>
<path d="M7.03125 5.90625C7.03125 6.81481 7.35199 7.70296 7.9529 8.4584C8.55381 9.21384 9.40792 9.80263 10.4072 10.1503C11.4065 10.498 12.5061 10.589 13.5669 10.4117C14.6277 10.2345 15.6022 9.79697 16.367 9.15452C17.1318 8.51207 17.6527 7.69355 17.8637 6.80245C18.0747 5.91135 17.9664 4.9877 17.5525 4.1483C17.1386 3.3089 16.4376 2.59145 15.5383 2.08669C14.6389 1.58192 13.5816 1.3125 12.5 1.3125C11.0496 1.3125 9.6586 1.79648 8.63301 2.65798C7.60742 3.51947 7.03125 4.68791 7.03125 5.90625Z" fill="#2E3192"/>
</svg>
