<svg width="322" height="284" viewBox="0 0 322 284" fill="none" xmlns="http://www.w3.org/2000/svg">
<g clip-path="url(#clip0_1_404)">
<path d="M307.736 283.622L307.307 283.462C307.213 283.427 297.836 279.843 293.443 271.717C289.05 263.592 291.201 253.808 291.223 253.71L291.324 253.265L291.753 253.425C291.847 253.46 301.224 257.044 305.617 265.169C310.01 273.295 307.859 283.079 307.837 283.177L307.736 283.622ZM294.146 271.339C297.86 278.21 305.271 281.731 307.148 282.535C307.505 280.528 308.625 272.411 304.914 265.548C301.204 258.685 293.791 255.158 291.912 254.352C291.555 256.36 290.436 264.476 294.146 271.339Z" fill="#3F3D56"/>
<path d="M296.8 268.867C304.694 273.605 307.735 283.014 307.735 283.014C307.735 283.014 297.976 284.743 290.081 280.006C282.187 275.268 279.147 265.859 279.147 265.859C279.147 265.859 288.906 264.13 296.8 268.867Z" fill="#2E3192"/>
<path d="M169.706 152.204C170.089 151.614 170.592 151.111 171.183 150.728C171.774 150.346 172.44 150.092 173.136 149.984C173.832 149.876 174.543 149.915 175.223 150.1C175.903 150.285 176.536 150.612 177.081 151.058C177.252 151.2 177.414 151.354 177.564 151.518L197.224 148.663L198.318 133.918C198.402 132.786 198.933 131.735 199.794 130.994C200.655 130.253 201.776 129.884 202.91 129.967C204.045 130.051 205.099 130.58 205.842 131.439C206.585 132.298 206.955 133.416 206.871 134.548C206.869 134.574 206.867 134.6 206.864 134.626L204.948 155.317L204.939 155.363C204.689 156.159 204.189 156.853 203.513 157.342C202.837 157.832 202.021 158.091 201.185 158.081L178.061 157.683C177.971 157.82 177.875 157.952 177.771 158.078C177.324 158.621 176.766 159.064 176.136 159.377C175.505 159.691 174.815 159.867 174.111 159.896C173.406 159.925 172.704 159.805 172.05 159.544C171.395 159.283 170.804 158.887 170.313 158.383C170.214 158.281 170.119 158.176 170.03 158.067C169.364 157.249 168.974 156.241 168.915 155.188C168.857 154.135 169.134 153.091 169.706 152.204Z" fill="#FFB7B7"/>
<path d="M209.342 277.93L203.735 277.929L201.067 256.357L209.343 256.357L209.342 277.93Z" fill="#FFB7B7"/>
<path d="M210.772 283.351L192.692 283.35V283.122C192.692 281.261 193.434 279.475 194.753 278.159C196.073 276.843 197.863 276.103 199.729 276.103H199.73L210.773 276.104L210.772 283.351Z" fill="#2F2E41"/>
<path d="M248.524 272.859L243.217 274.664L233.71 255.106L241.543 252.442L248.524 272.859Z" fill="#FFB7B7"/>
<path d="M251.632 277.53L234.52 283.351L234.446 283.135C233.844 281.373 233.968 279.445 234.791 277.774C235.614 276.103 237.068 274.827 238.835 274.226L238.835 274.226L249.287 270.67L251.632 277.53Z" fill="#2F2E41"/>
<path d="M215.517 89.3092C215.517 89.3092 209.936 87.4708 206.348 94.8245C202.76 102.178 197.179 110.267 197.179 110.267L200.368 111.003C200.368 111.003 201.166 105.855 203.159 105.12L202.362 111.738C202.362 111.738 226.28 119.459 237.044 111.003L236.645 108.429C236.645 108.429 238.24 108.796 238.24 111.003L239.435 109.9C239.435 109.9 238.24 107.693 234.652 104.752C232.297 102.821 231.488 99.1482 231.21 96.8518C230.989 94.9075 230.153 93.084 228.823 91.6456C226.439 89.097 222.094 86.3881 215.517 89.3092Z" fill="#2F2E41"/>
<path d="M217.574 115.002C223.204 115.002 227.767 110.45 227.767 104.835C227.767 99.2193 223.204 94.6673 217.574 94.6673C211.944 94.6673 207.381 99.2193 207.381 104.835C207.381 110.45 211.944 115.002 217.574 115.002Z" fill="#FFB7B7"/>
<path d="M203.983 123.374L202.129 122.758C202.129 122.758 198.423 124.298 198.423 127.071C198.423 129.844 197.805 140.935 197.805 140.935L206.145 141.86L203.983 123.374Z" fill="#CBCBCB"/>
<path d="M237.154 183.976C236.386 183.117 235.952 182.011 235.931 180.86C235.911 179.708 236.306 178.588 237.044 177.702L231.841 134.242C231.79 133.217 232.149 132.214 232.839 131.452C233.529 130.691 234.493 130.234 235.521 130.181C236.548 130.128 237.554 130.484 238.319 131.171C239.084 131.857 239.544 132.818 239.599 133.843C239.6 133.857 239.6 133.871 239.601 133.886L244.255 177.392C244.424 177.561 244.58 177.743 244.721 177.936C245.094 178.451 245.362 179.034 245.509 179.652C245.657 180.27 245.68 180.912 245.579 181.539C245.478 182.166 245.254 182.768 244.92 183.309C244.586 183.85 244.148 184.32 243.632 184.693C243.579 184.731 243.524 184.769 243.469 184.805C242.872 185.199 242.194 185.457 241.484 185.559C240.775 185.662 240.052 185.606 239.366 185.397C238.511 185.138 237.745 184.646 237.154 183.976Z" fill="#FFB7B7"/>
<path d="M232.389 140.935L240.729 140.011C240.729 140.011 240.112 128.92 240.112 126.147C240.112 123.374 236.405 121.833 236.405 121.833L234.552 122.45L232.389 140.935Z" fill="#CBCBCB"/>
<path d="M205.218 156.325C205.218 156.325 198.114 169.28 198.114 184.993C198.114 200.706 197.496 272.801 197.496 272.801C197.496 272.801 206.763 277.115 212.323 271.877L217.265 192.08L236.725 270.337C236.725 270.337 245.992 272.185 250.316 269.104L241.976 214.571C241.976 214.571 238.579 163.427 229.312 159.729C220.045 156.032 205.218 156.325 205.218 156.325Z" fill="#2F2E41"/>
<path d="M206.559 104.899C210.168 102.294 213.089 99.2938 215.021 95.7249C215.021 95.7249 221.643 103.064 225.69 103.431C229.737 103.798 226.058 94.624 226.058 94.624L218.7 92.7892L211.71 93.5231L206.191 97.1927L206.559 104.899Z" fill="#2F2E41"/>
<path d="M227.767 119.985C227.767 119.985 228.062 119.827 210.47 120.466L203.108 122.489L202.129 122.758C202.129 122.758 203.056 141.244 205.527 144.633C207.998 148.022 207.381 149.87 206.763 150.178C206.145 150.486 204.601 149.87 205.527 151.411C206.454 152.951 207.689 152.027 206.454 152.951C205.218 153.876 204.601 157.265 204.601 157.265L231.783 160.962C231.783 160.962 232.71 148.946 235.181 142.784C237.652 136.622 238.27 134.157 238.27 134.157L236.416 121.833L227.767 119.985Z" fill="#CBCBCB"/>
<path d="M176.088 67.4318H174.525V24.7203C174.525 18.1641 171.914 11.8764 167.266 7.24043C162.618 2.60448 156.314 2.58272e-05 149.741 1.52589e-05L59.0177 1.52589e-05C52.4446 -2.70722e-06 46.1408 2.60443 41.4929 7.24036C36.845 11.8763 34.2338 18.164 34.2338 24.7202V259.039C34.2338 265.595 36.8449 271.883 41.4928 276.519C46.1407 281.155 52.4445 283.759 59.0176 283.759H149.741C152.995 283.759 156.218 283.12 159.225 281.878C162.232 280.635 164.964 278.814 167.266 276.519C169.567 274.223 171.393 271.498 172.638 268.499C173.884 265.5 174.525 262.285 174.525 259.039V97.8346H176.088L176.088 67.4318Z" fill="#3F3D56"/>
<path d="M169.25 24.8939V258.868C169.252 261.29 168.776 263.689 167.849 265.928C166.921 268.167 165.561 270.201 163.845 271.915C162.13 273.63 160.092 274.99 157.85 275.919C155.607 276.848 153.203 277.327 150.774 277.329H59.5823C54.6769 277.333 49.971 275.393 46.4999 271.935C43.0288 268.478 41.0768 263.787 41.0733 258.894V24.8939C41.0716 22.4713 41.5483 20.072 42.4763 17.833C43.4042 15.5941 44.7652 13.5594 46.4815 11.8451C48.1978 10.1308 50.2358 8.77045 52.4792 7.84175C54.7225 6.91305 57.1273 6.43418 59.5563 6.43247H70.6406C70.096 7.76419 69.8882 9.20907 70.0353 10.6398C70.1825 12.0705 70.6803 13.4432 71.4846 14.6368C72.289 15.8305 73.3754 16.8085 74.6481 17.4847C75.9207 18.1608 77.3406 18.5144 78.7825 18.5143H130.758C132.2 18.5144 133.62 18.1608 134.892 17.4847C136.165 16.8085 137.251 15.8305 138.056 14.6368C138.86 13.4432 139.358 12.0705 139.505 10.6398C139.652 9.20907 139.444 7.76419 138.9 6.43247H150.741C155.646 6.42809 160.351 8.36717 163.822 11.8232C167.293 15.2791 169.246 19.9689 169.25 24.8608V24.8939L169.25 24.8939Z" fill="white"/>
<path d="M169.25 59.5097V51.5402H157.157V7.57214C155.103 6.81555 152.931 6.42963 150.741 6.43245H149.167V51.5402H107.219V18.5143H99.229V51.5402H64.0727V6.43249H59.5824C58.4079 6.43066 57.2359 6.54142 56.0826 6.76323V51.5402H41.0734V59.5097H56.0827V77.9435L41.0736 86.5864V95.7912L56.0826 87.1484V141.995H41.0734V149.964H56.0826V229.261H41.0734V237.231H56.0826V276.999C57.2359 277.221 58.4079 277.331 59.5824 277.329H64.0727V237.231H99.229V277.329H107.219V237.231H149.167V277.329H150.741C152.931 277.332 155.103 276.946 157.157 276.19V237.231H169.25V229.261H157.157V194.594H169.142V186.624H157.157V149.964H169.25V141.995H157.157V93.3803H169.25V85.4108H157.157V59.5097L169.25 59.5097ZM88.0952 59.5097L88.095 59.5098L64.0729 73.345L64.0727 73.3451V59.5097H88.0952ZM64.0727 82.5459L64.0729 82.5458L99.229 62.2993V141.995H64.0727V82.5459ZM64.0727 229.261V149.964H99.229V229.261H64.0727ZM149.167 229.261H107.219V194.594H149.167V229.261ZM149.167 186.624H107.219V149.964H149.167V186.624ZM149.167 141.995H107.219V93.3803H149.167V141.995ZM149.167 85.4108H107.219V59.5097H149.167V85.4108Z" fill="#E5E5E5"/>
<path d="M175.934 85.5582C175.934 110.867 129.991 167.246 129.991 167.246C129.991 167.246 84.0479 110.867 84.0479 85.5582C84.0479 73.4046 88.8883 61.7489 97.5043 53.1551C106.12 44.5612 117.806 39.7332 129.991 39.7332C142.176 39.7332 153.861 44.5612 162.477 53.1551C171.093 61.7489 175.934 73.4046 175.934 85.5582Z" fill="#2E3192"/>
<path d="M157.158 83.5658C157.158 88.925 155.564 94.1638 152.579 98.6198C149.594 103.076 145.351 106.549 140.387 108.6C135.423 110.651 129.961 111.187 124.692 110.142C119.422 109.096 114.581 106.515 110.782 102.726C106.983 98.9364 104.395 94.1082 103.347 88.852C102.299 83.5958 102.837 78.1476 104.893 73.1964C106.949 68.2452 110.431 64.0133 114.899 61.0359C119.366 58.0585 124.618 56.4693 129.991 56.4693C133.557 56.4677 137.089 57.1666 140.384 58.5262C143.679 59.8858 146.673 61.8794 149.196 64.3932C151.718 66.9071 153.72 69.8919 155.086 73.1772C156.452 76.4626 157.156 79.9842 157.158 83.5409V83.5658Z" fill="white"/>
<path d="M129.897 94.2622C135.486 94.2622 140.018 89.7426 140.018 84.1674C140.018 78.5922 135.486 74.0726 129.897 74.0726C124.307 74.0726 119.776 78.5922 119.776 84.1674C119.776 89.7426 124.307 94.2622 129.897 94.2622Z" fill="#2E3192"/>
<path d="M144.585 107.223C140.222 109.991 135.159 111.46 129.989 111.459C124.819 111.458 119.756 109.988 115.393 107.219C116.301 104.056 118.216 101.274 120.85 99.2934C123.484 97.3129 126.692 96.2418 129.991 96.2422C133.289 96.2427 136.498 97.3146 139.131 99.2959C141.764 101.277 143.679 104.06 144.585 107.223Z" fill="#2E3192"/>
<path d="M129.991 200.32C136.831 200.32 142.375 194.789 142.375 187.967C142.375 181.145 136.831 175.614 129.991 175.614C123.151 175.614 117.606 181.145 117.606 187.967C117.606 194.789 123.151 200.32 129.991 200.32Z" fill="#2E3192"/>
<path d="M321.6 284H0.399504C0.293549 284 0.191933 283.958 0.117012 283.883C0.0420905 283.809 0 283.707 0 283.601C0 283.496 0.0420905 283.394 0.117012 283.32C0.191933 283.245 0.293549 283.203 0.399504 283.203H321.6C321.706 283.203 321.808 283.245 321.883 283.32C321.958 283.394 322 283.496 322 283.601C322 283.707 321.958 283.809 321.883 283.883C321.808 283.958 321.706 284 321.6 284Z" fill="#CBCBCB"/>
</g>
<defs>
<clipPath id="clip0_1_404">
<rect width="322" height="284" fill="white"/>
</clipPath>
</defs>
</svg>
