<svg width="25" height="21" viewBox="0 0 25 21" fill="none" xmlns="http://www.w3.org/2000/svg">
<path d="M18.75 6.30005V8.40005C20.125 8.40005 21.25 9.34505 21.25 10.5V17.85C21.25 19.005 20.125 19.95 18.75 19.95H6.25C4.875 19.95 3.75 19.005 3.75 17.85V10.5C3.75 9.34505 4.875 8.40005 6.25 8.40005V6.30005C6.25 3.40205 9.05 1.05005 12.5 1.05005C15.95 1.05005 18.75 3.40205 18.75 6.30005ZM10 6.30005V8.40005H15V6.30005C15 5.14505 13.875 4.20005 12.5 4.20005C11.125 4.20005 10 5.14505 10 6.30005ZM13.5 17.0625V14.784C14.375 14.4585 15 13.7235 15 12.8625C15 11.7075 13.875 10.7625 12.5 10.7625C11.125 10.7625 10 11.7075 10 12.8625C10 13.7235 10.625 14.4585 11.5 14.784V17.0625H13.5Z" fill="#2E3192"/>
</svg>
