<svg width="112" height="190" viewBox="0 0 112 190" fill="none" xmlns="http://www.w3.org/2000/svg">
<path d="M58.4069 189.466L11.0042 185.826C7.63837 182.381 4.86526 178.243 2.88694 173.28C1.91703 170.846 1.20499 168.22 0.731578 165.458C-0.582811 157.815 -0.0747639 149.126 1.8439 140.597C3.31994 134.031 5.63312 127.549 8.59483 121.701C10.9619 117.024 13.7485 112.75 16.8583 109.158C19.0984 106.571 21.5212 104.058 24.075 101.593C27.156 98.6215 30.4314 95.7175 33.8087 92.8405C41.6778 86.1357 50.1049 79.5792 57.9085 72.6551C75.9135 56.6842 90.5199 38.837 87.0059 13.3729C86.8924 12.5723 85.7954 6.42952 84.3944 0.0634938L93.3681 0.0384876L99.2992 0.0230956L106.991 0C106.997 0 107.003 0 107.008 0C110.028 0 112.343 2.37281 111.958 5.30372L93.8242 143.529C91.6072 147.474 89.8425 151.673 88.3915 155.599C86.8077 159.884 85.2835 164.239 84.4445 168.739C84.1423 170.353 83.921 172.012 83.7286 173.689C80.4647 164.515 82.1332 154.647 71.953 154.647C71.4314 154.647 70.8791 154.673 70.2941 154.726C54.6465 156.144 51.2518 171.761 57.1136 186.341C57.5293 187.377 57.9662 188.419 58.4069 189.466Z" fill="white"/>
</svg>
