<svg width="260" height="260" viewBox="0 0 260 260" fill="none" xmlns="http://www.w3.org/2000/svg">
<g clip-path="url(#clip0_1_361)">
<path d="M256.401 62.7649H119.463C118.508 62.7638 117.593 62.3843 116.919 61.7095C116.244 61.0347 115.864 60.1197 115.863 59.1654V3.59951C115.864 2.6452 116.244 1.73029 116.919 1.05549C117.593 0.380696 118.508 0.00110626 119.463 0H256.401C257.355 0.0010915 258.27 0.380676 258.945 1.05548C259.619 1.73028 259.999 2.64519 260 3.59951V59.1654C259.999 60.1198 259.619 61.0347 258.945 61.7095C258.27 62.3843 257.355 62.7638 256.401 62.7649Z" fill="#E4E4E4"/>
<path d="M243.362 89.4202H132.502C131.356 89.4202 130.258 88.9652 129.448 88.1551C128.638 87.3451 128.182 86.2464 128.182 85.1008C128.182 83.9553 128.638 82.8566 129.448 82.0466C130.258 81.2365 131.356 80.7814 132.502 80.7814H243.362C248.932 80.7037 248.987 89.4987 243.362 89.4202Z" fill="#E4E4E4"/>
<path d="M208.437 163.183H167.426C166.28 163.183 165.182 162.728 164.372 161.918C163.562 161.108 163.107 160.009 163.107 158.864C163.107 157.718 163.562 156.62 164.372 155.809C165.182 154.999 166.28 154.544 167.426 154.544H208.437C214.008 154.467 214.063 163.262 208.437 163.183Z" fill="#3F3D56"/>
<path d="M243.362 109.218H132.502C131.356 109.218 130.258 108.762 129.448 107.952C128.638 107.142 128.182 106.044 128.182 104.898C128.182 103.753 128.638 102.654 129.448 101.844C130.258 101.034 131.356 100.579 132.502 100.579H243.362C248.932 100.501 248.987 109.296 243.362 109.218Z" fill="#E4E4E4"/>
<path d="M243.362 129.015H132.502C131.934 129.015 131.372 128.904 130.847 128.687C130.323 128.471 129.846 128.153 129.444 127.751C129.043 127.35 128.724 126.874 128.507 126.349C128.289 125.825 128.177 125.263 128.177 124.695C128.177 124.128 128.289 123.566 128.507 123.041C128.724 122.517 129.043 122.041 129.444 121.639C129.846 121.238 130.323 120.92 130.847 120.703C131.372 120.487 131.934 120.375 132.502 120.376H243.362C248.932 120.298 248.987 129.093 243.362 129.015Z" fill="#E4E4E4"/>
<path d="M103.644 179.196C102.692 179.197 101.78 179.576 101.108 180.248C100.435 180.921 100.056 181.833 100.055 182.785V256.354C100.056 257.305 100.435 258.218 101.108 258.89C101.78 259.563 102.692 259.941 103.644 259.942H112.47C113.422 259.941 114.334 259.563 115.006 258.89C115.679 258.218 116.057 257.305 116.058 256.354V182.785C116.057 181.833 115.679 180.921 115.006 180.248C114.334 179.576 113.422 179.197 112.47 179.196H103.644Z" fill="#2E3192"/>
<path d="M86.1856 179.196C85.2343 179.197 84.3222 179.576 83.6496 180.248C82.9769 180.921 82.5985 181.833 82.5974 182.785V256.354C82.5985 257.305 82.9769 258.218 83.6496 258.89C84.3222 259.563 85.2343 259.941 86.1856 259.942H95.0124C95.9637 259.941 96.8758 259.563 97.5485 258.89C98.2211 258.218 98.5995 257.305 98.6006 256.354V182.785C98.5995 181.833 98.2211 180.921 97.5485 180.248C96.8758 179.576 95.9637 179.197 95.0124 179.196H86.1856Z" fill="#2E3192"/>
<path d="M99.0643 102.12C115.909 102.12 129.564 88.4638 129.564 71.6186C129.564 54.7735 115.909 41.1177 99.0643 41.1177C82.2198 41.1177 68.5647 54.7735 68.5647 71.6186C68.5647 88.4638 82.2198 102.12 99.0643 102.12Z" fill="#2E3192"/>
<path d="M120.948 84.4224C122.925 84.3675 125.386 84.2989 127.282 82.9141C127.846 82.4848 128.31 81.9374 128.64 81.31C128.971 80.6826 129.16 79.9905 129.195 79.2823C129.23 78.7789 129.147 78.2744 128.954 77.8083C128.761 77.3421 128.463 76.9269 128.083 76.5951C127.093 75.7585 125.647 75.5622 124.089 76.0201L125.703 64.223L124.518 64.0607L122.621 77.9296L123.61 77.4755C124.757 76.9493 126.332 76.6815 127.311 77.5085C127.551 77.7247 127.738 77.9934 127.858 78.2938C127.977 78.5941 128.026 78.918 128 79.2402C127.971 79.7674 127.829 80.2821 127.583 80.7493C127.337 81.2166 126.994 81.6255 126.576 81.9481C125.101 83.0257 123.14 83.1646 120.915 83.2269L120.948 84.4224Z" fill="#2F2E41"/>
<path d="M138.005 65.2405H131.563V66.4366H138.005V65.2405Z" fill="#2F2E41"/>
<path d="M117.672 65.2405H111.23V66.4366H117.672V65.2405Z" fill="#2F2E41"/>
<path d="M125.73 205.649H88.7412C86.2229 205.649 83.7338 205.11 81.4414 204.068C79.1489 203.025 77.1062 201.504 75.4508 199.606C73.7953 197.709 72.5654 195.478 71.8439 193.065C71.1224 190.653 70.9259 188.113 71.2677 185.618L80.103 121.117C80.2328 120.192 80.6918 119.345 81.3956 118.731C82.0994 118.117 83.001 117.777 83.9349 117.774H91.9028C91.8927 117.665 91.8878 117.559 91.8878 117.456V114.465C91.889 113.44 92.2968 112.457 93.0219 111.732C93.7469 111.007 94.73 110.599 95.7554 110.598H102.932C103.957 110.599 104.94 111.007 105.665 111.732C106.39 112.457 106.798 113.44 106.799 114.465V117.456C106.799 117.559 106.795 117.665 106.784 117.774H114.752C115.686 117.777 116.588 118.117 117.292 118.731C117.995 119.345 118.454 120.192 118.584 121.117L129.562 201.257C129.637 201.804 129.593 202.361 129.435 202.89C129.277 203.419 129.007 203.908 128.644 204.324C128.281 204.74 127.833 205.074 127.331 205.302C126.828 205.531 126.282 205.649 125.73 205.649H125.73Z" fill="#2F2E41"/>
<path d="M97.5284 103.071L76.4326 94.8827C72.983 93.5437 69.5141 92.2455 66.0828 90.8604C64.613 90.3482 63.259 89.5502 62.099 88.5124C61.089 87.4432 60.4007 86.111 60.1129 84.6687C59.3812 81.5759 59.5135 78.1946 59.5656 75.0385C59.6061 71.5858 59.8902 68.1403 60.4159 64.7276C61.4301 58.3513 63.4127 52.0919 66.7851 46.5584C72.7012 36.851 82.8943 29.5475 94.6192 30.1303C100.047 30.4002 105.507 32.3481 109.54 36.0595C109.96 36.5623 110.432 37.0198 110.948 37.4245C111.307 37.559 111.697 37.5852 112.07 37.4998C112.562 37.4682 113.054 37.444 113.547 37.4273C115.258 37.3552 116.971 37.4271 118.67 37.6422C121.725 38.0609 124.757 39.118 127.12 41.1512C129.136 42.885 130.776 45.3326 130.944 48.0527C131.026 49.3014 130.819 50.5521 130.341 51.7083C129.863 52.8645 129.125 53.8954 128.185 54.7214C125.668 56.8427 122.077 56.0971 119.058 55.9371L107.998 55.3511L102.395 55.0542C101.241 54.9931 101.244 56.7874 102.395 56.8484L117.289 57.6375C119.682 57.7643 122.149 58.0751 124.544 57.9316C126.385 57.8482 128.142 57.1412 129.528 55.9266C130.793 54.7642 131.736 53.2937 132.263 51.6585C132.791 50.0233 132.887 48.2792 132.54 46.5963C131.772 42.9257 129.04 39.8893 125.838 38.0829C121.48 35.625 116.276 35.3895 111.401 35.7528L112.035 36.0156C106.52 30.0959 98.072 27.5965 90.1411 28.4712C81.7673 29.3947 74.3195 34.0665 68.9683 40.4548C63.0021 47.5773 59.7509 56.4585 58.4869 65.591C57.8292 70.5217 57.6126 75.5013 57.8399 80.4705C57.9285 82.6398 58.1098 84.8741 58.9476 86.9002C59.7944 88.9071 61.3254 90.5486 63.2684 91.5329C65.4374 92.6927 67.8388 93.4622 70.1266 94.3502L77.8987 97.367L93.1654 103.293L97.0515 104.801C98.1285 105.219 98.595 103.485 97.5284 103.071V103.071Z" fill="#2F2E41"/>
<path d="M64.3588 42.1005C62.5255 42.1005 60.7333 41.5569 59.209 40.5383C57.6846 39.5197 56.4965 38.072 55.7949 36.3781C55.0934 34.6843 54.9098 32.8204 55.2675 31.0222C55.6251 29.224 56.508 27.5723 57.8043 26.2759C59.1007 24.9795 60.7524 24.0966 62.5505 23.7389C64.3486 23.3812 66.2123 23.5648 67.9061 24.2664C69.5999 24.968 71.0476 26.1562 72.0661 27.6806C73.0847 29.205 73.6283 30.9973 73.6283 32.8307C73.6256 35.2884 72.6481 37.6446 70.9103 39.3824C69.1725 41.1203 66.8164 42.0978 64.3588 42.1005ZM64.3588 25.355C62.8804 25.355 61.4351 25.7934 60.2057 26.6149C58.9764 27.4363 58.0183 28.6038 57.4525 29.9698C56.8867 31.3359 56.7387 32.839 57.0271 34.2891C57.3155 35.7393 58.0275 37.0713 59.0729 38.1168C60.1184 39.1623 61.4504 39.8743 62.9005 40.1627C64.3506 40.4512 65.8536 40.3032 67.2196 39.7373C68.5855 39.1715 69.753 38.2133 70.5744 36.984C71.3958 35.7546 71.8342 34.3092 71.8342 32.8307C71.832 30.8487 71.0437 28.9485 69.6423 27.547C68.2409 26.1456 66.3408 25.3572 64.3588 25.355Z" fill="#2F2E41"/>
<path d="M170.758 153.249C171.035 152.339 170.94 151.356 170.493 150.516C170.047 149.676 169.285 149.047 168.376 148.768L102.246 128.544C100.733 128.081 99.1164 128.077 97.6009 128.533C96.0854 128.989 94.7392 129.884 93.7325 131.105C92.7258 132.326 92.1037 133.819 91.9451 135.393C91.7864 136.968 92.0983 138.554 92.8412 139.952V139.952C93.6896 141.567 95.0716 142.839 96.7519 143.551C97.0178 143.664 97.2896 143.763 97.5661 143.848L163.696 164.072C164.146 164.21 164.62 164.258 165.089 164.212C165.558 164.167 166.014 164.03 166.43 163.809C166.846 163.588 167.214 163.287 167.514 162.923C167.814 162.56 168.039 162.14 168.177 161.69L170.758 153.249Z" fill="#2E3192"/>
<path d="M115.577 155.833C115.071 155.698 114.584 155.501 114.125 155.248L95.717 149.293C86.9531 145.639 89.8696 135.962 92.2652 126.718L92.3777 126.284L111.163 123.04L125.313 129.365C126.818 130.039 128.009 131.263 128.642 132.786C129.276 134.308 129.304 136.016 128.721 137.559L123.299 151.877C122.732 153.376 121.627 154.611 120.2 155.342C118.773 156.073 117.126 156.248 115.577 155.833Z" fill="#2F2E41"/>
<path d="M206.463 260H0.665332C0.488874 260 0.319637 259.93 0.194862 259.805C0.0700877 259.68 0 259.511 0 259.335C0 259.158 0.0700877 258.989 0.194862 258.864C0.319637 258.739 0.488874 258.669 0.665332 258.669H206.463C206.639 258.669 206.809 258.739 206.933 258.864C207.058 258.989 207.128 259.158 207.128 259.335C207.128 259.511 207.058 259.68 206.933 259.805C206.809 259.93 206.639 260 206.463 260Z" fill="#3F3D56"/>
</g>
<defs>
<clipPath id="clip0_1_361">
<rect width="260" height="260" fill="white"/>
</clipPath>
</defs>
</svg>
