<svg width="328" height="229" viewBox="0 0 328 229" fill="none" xmlns="http://www.w3.org/2000/svg">
<g clip-path="url(#clip0_1_463)">
<path d="M289.657 223.243L284.169 223.243L281.559 202.128L289.657 202.129L289.657 223.243Z" fill="#FFB8B8"/>
<path d="M291.056 228.549L273.362 228.549V228.325C273.362 226.503 274.088 224.756 275.38 223.468C276.671 222.179 278.423 221.455 280.249 221.455H280.25L291.056 221.456L291.056 228.549Z" fill="#2F2E41"/>
<path d="M313.875 209.785L310.314 213.949L292.518 202.225L297.775 196.079L313.875 209.785Z" fill="#FFB8B8"/>
<path d="M318.83 212.167L307.345 225.594L307.175 225.449C305.785 224.267 304.924 222.582 304.78 220.765C304.636 218.949 305.221 217.15 306.406 215.764L306.406 215.763L313.421 207.563L318.83 212.167Z" fill="#2F2E41"/>
<path d="M250.694 119.405L248.986 135.12L318.036 134.138L287.923 85.1903L263.336 84.3093L250.694 119.405Z" fill="#2F2E41"/>
<path opacity="0.28" d="M250.694 119.405L248.986 135.12L318.036 134.138L287.923 85.1903L263.336 84.3093L250.694 119.405Z" fill="black"/>
<path d="M264.272 122.103L261.834 136.483V149.335L281.489 155.735C281.489 155.735 279.188 205.658 282.255 208.838L282.18 216.514L290.754 216.902L290.824 211.501L294.459 171.122L296.6 141.476L293.129 119L264.272 122.103Z" fill="#2F2E41"/>
<path d="M279.499 134.481L261.834 149.335C261.834 149.335 260.8 176.136 263.426 179.279C265.681 181.978 295.009 205.262 295.009 205.262C295.009 205.262 300.222 210.032 303.143 210.108C306.064 210.184 309.461 204.072 309.461 204.072L302.696 198.945C302.696 198.945 285.17 182.625 279.966 176.136C277.866 173.517 277.866 173.255 277.866 173.255L278.583 162.363L285.803 142.149L279.499 134.481Z" fill="#2F2E41"/>
<path d="M260.744 63.3288L253.128 62.6266L246.22 63.7752L231.591 63.7798L230.345 74.3566L243.694 77.3367L246.948 75.7461L260.509 80.9004L260.744 63.3288Z" fill="#2F2E41"/>
<path d="M269.841 63.2957C269.841 63.2957 286.005 61.7848 289.68 64.6659C293.356 67.5469 301.233 124.644 301.233 124.644L269.841 126.411L264.213 122.549L265.811 94.0434L269.841 63.2957Z" fill="#CCCCCC"/>
<path d="M274.775 62.94L256.945 63.3304L240.321 138.263L253.449 141.144L274.775 62.94Z" fill="#2F2E41"/>
<path d="M287.45 62.3066L301.495 66.6919L300.697 97.4793L318.036 134.288L297.653 136.43L281.542 96.6835L287.45 62.3066Z" fill="#2F2E41"/>
<path d="M310.61 138.027C311.102 137.595 311.494 137.06 311.757 136.46C312.019 135.86 312.147 135.211 312.131 134.556C312.115 133.902 311.955 133.26 311.663 132.674C311.371 132.088 310.953 131.573 310.44 131.165L313.266 121.332L307.694 118.162L303.9 132.104C303.27 133.009 302.996 134.114 303.128 135.207C303.261 136.301 303.791 137.309 304.618 138.039C305.445 138.769 306.512 139.171 307.616 139.169C308.721 139.167 309.786 138.76 310.61 138.027Z" fill="#FFB8B8"/>
<path d="M293.356 67.5469L301.667 66.8278C301.667 66.8278 309.128 74.6121 310.825 80.6393C312.522 86.6665 314.36 105.524 314.36 105.524L313.593 133.111L303.879 126.53L303.228 102.802L293.356 67.5469Z" fill="#2F2E41"/>
<path d="M291.351 53.681C294.472 47.986 292.374 40.8455 286.665 37.7323C280.956 34.6191 273.798 36.7121 270.678 42.4071C267.557 48.1022 269.655 55.2427 275.364 58.3559C281.073 61.4691 288.231 59.376 291.351 53.681Z" fill="#FFB8B8"/>
<path d="M279.701 43.1379C278.155 42.7816 276.551 43.1764 274.985 43.4323C273.42 43.6883 271.695 43.7726 270.371 42.9013C269.393 42.2578 268.791 41.1932 268.227 40.1692C267.991 39.8035 267.834 39.393 267.766 38.9637C267.699 38.2063 268.182 37.5154 268.695 36.953C271.077 34.3409 274.558 32.9112 278.068 32.4571C280.964 32.0267 283.921 32.387 286.628 33.4998C289.292 34.6657 291.583 36.8009 292.631 39.5091C293.113 40.8951 293.415 42.3375 293.527 43.8004C293.686 44.8768 293.706 45.9689 293.588 47.0504C293.447 47.8521 293.236 48.64 292.957 49.4049L291.221 54.6327C291.096 55.1267 290.863 55.5869 290.539 55.9802C290.372 56.1729 290.147 56.3064 289.898 56.3609C289.648 56.4154 289.388 56.3878 289.156 56.2824C289.295 55.7146 289.316 55.1244 289.218 54.5482C289.164 54.261 289.025 53.9966 288.818 53.789C288.612 53.5815 288.348 53.4403 288.061 53.3838C287.421 53.316 286.875 53.8107 286.268 54.0238C285.99 54.1059 285.699 54.1326 285.411 54.1025C285.123 54.0723 284.843 53.9859 284.589 53.8481C284.334 53.7102 284.109 53.5237 283.927 53.2992C283.745 53.0747 283.609 52.8165 283.526 52.5395C283.51 52.4836 283.495 52.4272 283.483 52.3701C283.387 51.7725 283.548 51.1327 283.321 50.5714C283.055 49.9138 282.349 49.5693 281.819 49.0967C281.336 48.6515 280.99 48.0777 280.822 47.4429C280.654 46.8081 280.671 46.1387 280.871 45.5133C281.013 45.0782 281.414 44.8804 281.334 44.3806C281.228 43.7249 280.259 43.2665 279.701 43.1379Z" fill="#2F2E41"/>
<path d="M148.729 92.815H0V0H148.729V92.815Z" fill="white"/>
<path d="M148.729 92.815H0V0H148.729V92.815ZM0.679128 92.1376H148.05V0.677483H0.679128V92.1376Z" fill="#3F3D56"/>
<path d="M130.562 221.367H45.6713V128.552H130.562V221.367Z" fill="white"/>
<path d="M130.562 221.367H45.6713V128.552H130.562V221.367ZM46.3504 220.69H129.883V129.23H46.3504V220.69Z" fill="#3F3D56"/>
<path d="M119.017 212.601H101.36V213.315H119.017V212.601Z" fill="#3F3D56"/>
<path d="M119.017 214.744H101.36V215.458H119.017V214.744Z" fill="#3F3D56"/>
<path d="M119.017 216.886H101.36V217.6H119.017V216.886Z" fill="#3F3D56"/>
<path d="M88.1167 145.151V152.603C92.5492 152.603 96.8822 153.914 100.568 156.371C104.253 158.827 107.126 162.319 108.822 166.404C110.518 170.489 110.962 174.985 110.097 179.321C109.233 183.658 107.098 187.642 103.964 190.769L109.246 196.038C113.425 191.869 116.271 186.558 117.424 180.775C118.577 174.993 117.985 168.999 115.724 163.552C113.462 158.105 109.632 153.45 104.718 150.174C99.804 146.899 94.0267 145.151 88.1167 145.151Z" fill="#E6E6E6"/>
<path d="M109.246 196.038L103.964 190.769C100.132 194.592 95.0415 196.9 89.6347 197.266C84.2279 197.631 78.8714 196.03 74.5576 192.758L70.0361 198.693C75.7888 203.054 82.931 205.189 90.1401 204.701C97.3492 204.213 104.137 201.135 109.246 196.038Z" fill="#575A89"/>
<path d="M65.7055 174.96C65.7055 172.024 66.2852 169.117 67.4115 166.404C68.5377 163.692 70.1885 161.227 72.2696 159.151C74.3507 157.075 76.8213 155.428 79.5403 154.305C82.2593 153.181 85.1736 152.603 88.1167 152.603V145.151C81.8613 145.151 75.7637 147.109 70.6832 150.75C65.6028 154.39 61.7957 159.529 59.7987 165.443C57.8017 171.357 57.7155 177.747 59.5521 183.712C61.3888 189.677 65.0557 194.917 70.0361 198.693L74.5576 192.758C71.8046 190.674 69.5726 187.983 68.0368 184.896C66.501 181.808 65.703 178.407 65.7055 174.96Z" fill="#2E3192"/>
<path d="M256.201 163.781H171.31V70.9662H256.201V163.781Z" fill="white"/>
<path d="M256.201 163.781H171.31V70.9662H256.201V163.781ZM171.989 163.104H255.521V71.6437H171.989V163.104Z" fill="#3F3D56"/>
<path d="M198.814 127.705H183.534V152.095H198.814V127.705Z" fill="#575A89"/>
<path d="M220.886 111.107H205.606V152.095H220.886V111.107Z" fill="#E6E6E6"/>
<path d="M242.958 91.7989H227.677V152.095H242.958V91.7989Z" fill="#2E3192"/>
<path d="M248.051 152.773H179.459V81.9754H180.138V152.095H248.051V152.773Z" fill="#3F3D56"/>
<path d="M231.514 73.4373C234.097 73.4373 236.191 71.3485 236.191 68.7718C236.191 66.1951 234.097 64.1062 231.514 64.1062C228.931 64.1062 226.837 66.1951 226.837 68.7718C226.837 71.3485 228.931 73.4373 231.514 73.4373Z" fill="#FFB8B8"/>
<path d="M327.61 229H254.729C254.626 229 254.527 228.959 254.454 228.886C254.381 228.813 254.339 228.714 254.339 228.611C254.339 228.508 254.381 228.409 254.454 228.336C254.527 228.263 254.626 228.222 254.729 228.222H327.61C327.714 228.222 327.813 228.263 327.886 228.336C327.959 228.409 328 228.508 328 228.611C328 228.714 327.959 228.813 327.886 228.886C327.813 228.959 327.714 229 327.61 229Z" fill="#CCCCCC"/>
<path d="M128.074 73.4039H20.6549C20.5657 73.4039 20.4802 73.3685 20.4172 73.3057C20.3541 73.2428 20.3187 73.1575 20.3187 73.0685V21.7073C20.3187 21.6183 20.3541 21.533 20.4172 21.4701C20.4802 21.4073 20.5657 21.3719 20.6549 21.3719C20.7441 21.3719 20.8296 21.4073 20.8926 21.4701C20.9556 21.533 20.9911 21.6183 20.9911 21.7073V72.7332H128.074C128.118 72.733 128.162 72.7416 128.203 72.7584C128.244 72.7752 128.281 72.7998 128.312 72.831C128.344 72.8621 128.369 72.8992 128.386 72.9399C128.402 72.9807 128.411 73.0244 128.411 73.0685C128.411 73.1127 128.402 73.1564 128.386 73.1971C128.369 73.2379 128.344 73.2749 128.312 73.3061C128.281 73.3372 128.244 73.3619 128.203 73.3787C128.162 73.3955 128.118 73.404 128.074 73.4039Z" fill="#3F3D56"/>
<path d="M43.6056 69.7149H33.8355C33.5709 69.7146 33.3172 69.6097 33.1302 69.423C32.9431 69.2364 32.8378 68.9834 32.8375 68.7195V55.2839C32.8378 55.0199 32.9431 54.7669 33.1302 54.5803C33.3172 54.3937 33.5709 54.2887 33.8355 54.2884H43.6056C43.8702 54.2887 44.1238 54.3937 44.3109 54.5803C44.498 54.7669 44.6032 55.0199 44.6036 55.2839V68.7195C44.6032 68.9834 44.498 69.2364 44.3109 69.423C44.1238 69.6097 43.8702 69.7146 43.6056 69.7149Z" fill="#2E3192"/>
<path d="M61.4228 69.7149H51.6526C51.388 69.7146 51.1344 69.6097 50.9473 69.4231C50.7602 69.2364 50.655 68.9834 50.6547 68.7195V42.5403C50.655 42.2763 50.7602 42.0233 50.9473 41.8367C51.1344 41.6501 51.388 41.5451 51.6526 41.5448H61.4228C61.6873 41.5451 61.941 41.6501 62.128 41.8367C62.3151 42.0233 62.4204 42.2763 62.4207 42.5403V68.7195C62.4204 68.9834 62.3151 69.2364 62.128 69.4231C61.941 69.6097 61.6873 69.7146 61.4228 69.7149Z" fill="#2E3192"/>
<path d="M79.2399 69.7149H69.4697C69.2052 69.7146 68.9515 69.6097 68.7645 69.423C68.5774 69.2364 68.4721 68.9834 68.4718 68.7195V55.2839C68.4721 55.0199 68.5774 54.7669 68.7645 54.5803C68.9515 54.3937 69.2052 54.2887 69.4697 54.2884H79.2399C79.5045 54.2887 79.7581 54.3937 79.9452 54.5803C80.1323 54.7669 80.2375 55.0199 80.2379 55.2839V68.7195C80.2375 68.9834 80.1323 69.2364 79.9452 69.423C79.7581 69.6097 79.5045 69.7146 79.2399 69.7149Z" fill="#2E3192"/>
<path d="M97.057 69.7149H87.2869C87.0283 69.7205 86.7781 69.6236 86.5911 69.4454C86.404 69.2673 86.2954 69.0225 86.2889 68.7646V37.4648C86.2954 37.2069 86.404 36.9621 86.5911 36.7839C86.7781 36.6058 87.0283 36.5089 87.2869 36.5144H97.057C97.3156 36.5089 97.5658 36.6058 97.7528 36.7839C97.9399 36.9621 98.0485 37.2069 98.055 37.4648V68.7646C98.0485 69.0225 97.9399 69.2673 97.7528 69.4454C97.5658 69.6236 97.3156 69.7205 97.057 69.7149Z" fill="#2E3192"/>
<path d="M114.874 69.7149H105.104C104.839 69.7146 104.586 69.6097 104.399 69.4231C104.212 69.2364 104.106 68.9834 104.106 68.7195V28.4552C104.106 28.1913 104.212 27.9383 104.399 27.7517C104.586 27.565 104.839 27.4601 105.104 27.4598H114.874C115.139 27.4601 115.392 27.565 115.579 27.7517C115.767 27.9383 115.872 28.1913 115.872 28.4552V68.7195C115.872 68.9834 115.767 69.2364 115.579 69.4231C115.392 69.6097 115.139 69.7146 114.874 69.7149Z" fill="#2E3192"/>
<path d="M38.7205 50.2641C39.8345 50.2641 40.7376 49.3633 40.7376 48.252C40.7376 47.1407 39.8345 46.2398 38.7205 46.2398C37.6065 46.2398 36.7035 47.1407 36.7035 48.252C36.7035 49.3633 37.6065 50.2641 38.7205 50.2641Z" fill="#3F3D56"/>
<path d="M56.5377 37.1852C57.6516 37.1852 58.5547 36.2843 58.5547 35.173C58.5547 34.0617 57.6516 33.1609 56.5377 33.1609C55.4237 33.1609 54.5206 34.0617 54.5206 35.173C54.5206 36.2843 55.4237 37.1852 56.5377 37.1852Z" fill="#3F3D56"/>
<path d="M74.3548 50.2641C75.4688 50.2641 76.3718 49.3633 76.3718 48.252C76.3718 47.1407 75.4688 46.2398 74.3548 46.2398C73.2408 46.2398 72.3378 47.1407 72.3378 48.252C72.3378 49.3633 73.2408 50.2641 74.3548 50.2641Z" fill="#3F3D56"/>
<path d="M92.1719 30.8134C93.2859 30.8134 94.189 29.9125 94.189 28.8012C94.189 27.6899 93.2859 26.7891 92.1719 26.7891C91.058 26.7891 90.1549 27.6899 90.1549 28.8012C90.1549 29.9125 91.058 30.8134 92.1719 30.8134Z" fill="#3F3D56"/>
<path d="M109.989 23.4355C111.103 23.4355 112.006 22.5346 112.006 21.4233C112.006 20.312 111.103 19.4112 109.989 19.4112C108.875 19.4112 107.972 20.312 107.972 21.4233C107.972 22.5346 108.875 23.4355 109.989 23.4355Z" fill="#3F3D56"/>
<path d="M74.3972 48.7027L56.5378 35.3581L38.922 48.5204L38.519 47.9835L56.5378 34.5199L74.3122 47.8011L91.9756 28.5189L92.0465 28.4901L109.863 21.3285L110.115 21.951L92.3684 29.0838L74.3972 48.7027Z" fill="#3F3D56"/>
</g>
<defs>
<clipPath id="clip0_1_463">
<rect width="328" height="229" fill="white"/>
</clipPath>
</defs>
</svg>
